<?xml version="1.0" encoding="UTF-8"?>
<svg width="48" height="48" viewBox="0 0 48 48" fill="none" xmlns="http://www.w3.org/2000/svg">
  <g clip-path="url(#clip0_128_2)">
    <rect width="48" height="48" fill="none"/>
    <path
      fill-rule="evenodd"
      clip-rule="evenodd"
      d="M24 1C18.303 1.00296 12.7923 3.02092 8.45374 6.69305C4.11521 10.3652 1.23181 15.452 0.319089 21.044C-0.593628 26.636 0.523853 32.3684 3.47174 37.2164C6.41963 42.0643 11.0057 45.7115 16.4099 47.5059C17.6021 47.7272 18.0512 46.9883 18.0512 46.36C18.0512 45.7317 18.0273 43.91 18.0194 41.9184C11.3428 43.3608 9.93197 39.101 9.93197 39.101C8.84305 36.3349 7.26927 35.6078 7.26927 35.6078C5.09143 34.1299 7.43223 34.1576 7.43223 34.1576C9.84455 34.3275 11.1123 36.6194 11.1123 36.6194C13.2504 40.2667 16.7278 39.2116 18.0949 38.5952C18.3095 37.0501 18.9335 35.999 19.621 35.4023C14.2877 34.8017 8.68408 32.7548 8.68408 23.6108C8.65102 21.2394 9.53605 18.9461 11.156 17.2054C10.9096 16.6047 10.087 14.1785 11.3905 10.8829C11.3905 10.8829 13.4054 10.2427 17.9916 13.3289C21.9253 12.2592 26.0757 12.2592 30.0095 13.3289C34.5917 10.2427 36.6026 10.8829 36.6026 10.8829C37.9101 14.1706 37.0875 16.5968 36.8411 17.2054C38.4662 18.9464 39.353 21.2437 39.317 23.6187C39.317 32.7824 33.7015 34.8017 28.3602 35.3905C29.2186 36.1334 29.9856 37.5836 29.9856 39.8122C29.9856 43.0051 29.9578 45.5736 29.9578 46.36C29.9578 46.9962 30.391 47.7391 31.6071 47.5059C37.0119 45.7113 41.5984 42.0634 44.5462 37.2147C47.4941 32.3659 48.611 26.6326 47.6972 21.0401C46.7835 15.4476 43.8986 10.3607 39.5587 6.68921C35.2187 3.01771 29.7067 1.00108 24.0085 1H24Z"
      fill="#00FF00"
    />
    <path
      d="M20 15H24V19H20V15Z"
      fill="white"
    />
    <path
      d="M20 20H24V24H20V20Z"
      fill="white"
    />
    <path
      d="M20 25H24V29H20V25Z"
      fill="white"
    />
    <path
      d="M20 30H24V34H20V30Z"
      fill="white"
    />
    <path
      d="M25 20H29V24H25V20Z"
      fill="white"
    />
    <path
      d="M30 20H34V24H30V20Z"
      fill="white"
    />
  </g>
  <defs>
    <clipPath id="clip0_128_2">
      <rect width="48" height="48" fill="white"/>
    </clipPath>
  </defs>
</svg> 